<svg width="580" height="400" xmlns="http://www.w3.org/2000/svg">
  <g>
    <title>background</title>
    <rect fill="none" id="canvas_background" height="402" width="582" y="-1" x="-1"/>
    <g display="none" overflow="visible" y="0" x="0" height="100%" width="100%" id="canvasGrid">
      <rect fill="url(#gridpattern)" stroke-width="0" y="0" x="0" height="100%" width="100%"/>
    </g>
  </g>
  <g>
    <title>Layer 1</title>
    <g transform="matrix(0.05284713925482465,0,0,0.05284713925482465,0,0) " id="svg_12">
      <title>background</title>
      <rect x="-1" y="-1" width="582" height="402" id="svg_10" fill="#fff"/>
      <g id="svg_9" display="none">
        <rect id="svg_13" width="100%" height="100%" x="0" y="0" stroke-width="0" fill="url(#gridpattern)"/>
      </g>
    </g>
    <path
      fill="#4c4eb5"
      stroke="#4c4eb5"
      stroke-width="1.5"
      d="m-31.667213,66.469672c5.552917,72.981186 142.481221,88.057844 154.687138,88.404288c12.205917,0.346444 47.597667,-0.3509 134.064506,-30.495305c86.466839,-30.144406 131.683448,32.524225 131.604991,32.177781c0.078456,0.346444 46.088335,63.015074 84.958746,45.563052c38.870412,-17.452022 26.971307,-94.399585 57.115713,-106.29869c30.144406,-11.899104 72.981186,46.009878 72.902719,45.663434c0.078466,0.346444 -1.508083,-136.889911 -1.586549,-137.236355c0.078466,0.346444 -54.657418,-10.759391 -54.735884,-10.312555c0.078466,-0.446836 -578.21811,-2.826655 -577.503277,-2.379819c-0.714833,-0.446836 -7.06102,1.932983 -1.508103,74.914169z"
      id="svg_8"/>
    <path
      fill="#5c5edc"
      stroke="#5c5edc"
      stroke-width="1.5"
      d="m-3.881002,60.341512c5.552917,72.981186 142.481221,88.057844 154.687138,88.404288c12.205917,0.346444 47.597667,-0.3509 134.064506,-30.495305c86.466839,-30.144406 131.683448,32.524225 131.604991,32.177781c0.078456,0.346444 46.088335,63.015074 84.958746,45.563052c38.870412,-17.452022 26.971307,-94.399585 57.115713,-106.29869c30.144406,-11.899104 72.981186,46.009878 72.902719,45.663434c0.078466,0.346444 -1.508083,-136.889911 -1.586549,-137.236355c0.078466,0.346444 -54.657418,-10.759391 -54.735884,-10.312555c0.078466,-0.446836 -578.21811,-2.826655 -577.503277,-2.379819c-0.714833,-0.446836 -7.06102,1.932983 -1.508103,74.914169z"
      id="svg_7"/>
    <g id="svg_15"/>
  </g>
</svg>
